# xmcd CD database file
#
# Track frame offsets:
#	150
#	8567
#	28536
#	42623
#	59408
#	62668
#	82665
#	92729
#	115686
#	129266
#	146352
#
# Disc length: 2283 seconds
#
# Revision: 0
# Processed by: cddbd v1.5.1PL2 Copyright (c) Steve Scherf et al.
# Submitted via: CDex 1.51
#
DISCID=8108e90b
DTITLE=Max De Castro - Balanço Das Horas
DYEAR=1900
DGENRE=Jazz
TTITLE0=Se Não Tem Remédio, Remediado Está
TTITLE1=É O Caso De Perguntar
TTITLE2=Balanço Das Horas
TTITLE3=Candura
TTITLE4=I Remember Fela
TTITLE5=Doce Deleite (Possivelmente Amor)
TTITLE6=Slt Stone Is Paying In My House
TTITLE7=Programa
TTITLE8=Samba Jóia
TTITLE9=Assim É... Se Lhe Parece
TTITLE10=Rindo Se Diz Coisas Sérias (Pós-Valsa Para Novelli)
EXTD=
EXTT0=
EXTT1=
EXTT2=
EXTT3=
EXTT4=
EXTT5=
EXTT6=
EXTT7=
EXTT8=
EXTT9=
EXTT10=
PLAYORDER=
